<svg width="164" height="126" viewBox="0 0 164 126" fill="none" xmlns="http://www.w3.org/2000/svg">
<g clip-path="url(#clip0_29_19)">
<path d="M107.741 76.5455C105.218 76.5455 103.042 75.9887 101.213 74.875C99.3944 73.75 97.991 72.1818 97.0023 70.1705C96.025 68.1478 95.5364 65.7955 95.5364 63.1137C95.5364 60.4318 96.025 58.0682 97.0023 56.0228C97.991 53.9659 99.366 52.3637 101.127 51.2159C102.9 50.0568 104.968 49.4773 107.332 49.4773C108.696 49.4773 110.042 49.7046 111.372 50.1591C112.701 50.6137 113.911 51.3523 115.002 52.375C116.093 53.3864 116.963 54.7273 117.61 56.3978C118.258 58.0682 118.582 60.125 118.582 62.5682V64.2728H98.4V60.7955H114.491C114.491 59.3182 114.196 58 113.605 56.8409C113.025 55.6818 112.195 54.7671 111.116 54.0966C110.048 53.4262 108.786 53.0909 107.332 53.0909C105.73 53.0909 104.343 53.4887 103.173 54.2841C102.014 55.0682 101.122 56.0909 100.497 57.3523C99.8716 58.6137 99.5591 59.9659 99.5591 61.4091V63.7273C99.5591 65.7046 99.9 67.3807 100.582 68.7557C101.275 70.1193 102.235 71.1591 103.463 71.875C104.69 72.5796 106.116 72.9318 107.741 72.9318C108.798 72.9318 109.752 72.7841 110.605 72.4887C111.468 72.1818 112.213 71.7273 112.838 71.125C113.463 70.5114 113.946 69.75 114.286 68.8409L118.173 69.9318C117.764 71.25 117.076 72.4091 116.11 73.4091C115.144 74.3978 113.951 75.1705 112.531 75.7273C111.11 76.2727 109.514 76.5455 107.741 76.5455Z" fill="#091C26"/>
<path d="M94.3115 49.8182L84.6297 76.0001H80.5388L70.857 49.8182H75.2206L82.4479 70.6819H82.7206L89.9479 49.8182H94.3115Z" fill="#091C26"/>
<path d="M58.6591 76.5455C56.1364 76.5455 53.9602 75.9887 52.1307 74.875C50.3125 73.75 48.9091 72.1818 47.9205 70.1705C46.9432 68.1478 46.4546 65.7955 46.4546 63.1137C46.4546 60.4318 46.9432 58.0682 47.9205 56.0228C48.9091 53.9659 50.2841 52.3637 52.0455 51.2159C53.8182 50.0568 55.8864 49.4773 58.25 49.4773C59.6137 49.4773 60.9602 49.7046 62.2898 50.1591C63.6193 50.6137 64.8296 51.3523 65.9205 52.375C67.0114 53.3864 67.8807 54.7273 68.5284 56.3978C69.1762 58.0682 69.5 60.125 69.5 62.5682V64.2728H49.3182V60.7955H65.4091C65.4091 59.3182 65.1137 58 64.5227 56.8409C63.9432 55.6818 63.1137 54.7671 62.0341 54.0966C60.9659 53.4262 59.7046 53.0909 58.25 53.0909C56.6477 53.0909 55.2614 53.4887 54.0909 54.2841C52.9318 55.0682 52.0398 56.0909 51.4148 57.3523C50.7898 58.6137 50.4773 59.9659 50.4773 61.4091V63.7273C50.4773 65.7046 50.8182 67.3807 51.5 68.7557C52.1932 70.1193 53.1534 71.1591 54.3807 71.875C55.608 72.5796 57.0341 72.9318 58.6591 72.9318C59.7159 72.9318 60.6705 72.7841 61.5227 72.4887C62.3864 72.1818 63.1307 71.7273 63.7557 71.125C64.3807 70.5114 64.8637 69.75 65.2046 68.8409L69.0909 69.9318C68.6818 71.25 67.9943 72.4091 67.0284 73.4091C66.0625 74.3978 64.8693 75.1705 63.4489 75.7273C62.0284 76.2727 60.4318 76.5455 58.6591 76.5455Z" fill="#091C26"/>
<path d="M56.2559 13.6978C56.9751 13.2868 57.8917 13.5362 58.3027 14.2554C58.7137 14.9746 58.4634 15.8912 57.7441 16.3022L18.0225 38.9995L44.7852 54.2925C44.2059 55.1036 43.7055 55.9748 43.2949 56.895L16.5 41.5845V84.4146L43.2939 69.103C43.7045 70.0235 44.2048 70.8951 44.7842 71.7065L18.0225 86.9995L57.7441 109.698C58.4634 110.109 58.7137 111.025 58.3027 111.745C57.8917 112.464 56.9751 112.713 56.2559 112.302L14.2549 88.3022C14.2477 88.2982 14.2414 88.2928 14.2344 88.2886C14.2159 88.2776 14.1977 88.2662 14.1797 88.2544C14.1677 88.2465 14.1553 88.2392 14.1436 88.231C14.134 88.2243 14.1246 88.2173 14.1152 88.2104C14.0954 88.196 14.0758 88.181 14.0566 88.1655C14.0471 88.1578 14.0377 88.15 14.0283 88.1421C14.026 88.1401 14.0238 88.1382 14.0215 88.1362C14.0146 88.1304 14.0077 88.1246 14.001 88.1187C13.9837 88.1032 13.9669 88.0871 13.9502 88.0708C13.9425 88.0632 13.9353 88.0551 13.9277 88.0474C13.9138 88.0332 13.9 88.0191 13.8867 88.0044C13.8744 87.9907 13.8625 87.9766 13.8506 87.9624C13.8452 87.956 13.8402 87.9494 13.835 87.9429C13.82 87.9244 13.805 87.9062 13.791 87.8872C13.783 87.8763 13.7753 87.8652 13.7676 87.854C13.7591 87.8418 13.7513 87.8293 13.7432 87.8169C13.7318 87.7994 13.7205 87.782 13.71 87.7642C13.706 87.7575 13.7011 87.7514 13.6973 87.7446C13.6949 87.7405 13.6927 87.7361 13.6904 87.7319C13.6818 87.7166 13.6741 87.7007 13.666 87.6851C13.6572 87.6679 13.6487 87.6507 13.6406 87.6333C13.6339 87.619 13.6273 87.6048 13.6211 87.5903C13.6164 87.5795 13.6128 87.5681 13.6084 87.5571C13.6022 87.5415 13.5956 87.5261 13.5898 87.5103C13.5609 87.4306 13.5392 87.3497 13.5244 87.2681C13.5235 87.2632 13.5223 87.2583 13.5215 87.2534L13.5098 87.1792C13.5079 87.1639 13.5072 87.1486 13.5059 87.1333C13.5042 87.1151 13.5039 87.0969 13.5029 87.0786C13.5022 87.0636 13.5003 87.0487 13.5 87.0337V38.9663C13.5003 38.951 13.5021 38.9357 13.5029 38.9204C13.5039 38.9018 13.5042 38.8832 13.5059 38.8647C13.5064 38.8585 13.5072 38.8524 13.5078 38.8462V38.8423C13.5103 38.8188 13.514 38.7954 13.5176 38.772L13.5215 38.7466C13.5227 38.7397 13.5241 38.7329 13.5254 38.7261C13.5274 38.7154 13.5281 38.7045 13.5303 38.6938C13.5355 38.6686 13.5422 38.6437 13.5488 38.6187C13.5518 38.6072 13.5553 38.5959 13.5586 38.5845C13.5616 38.5741 13.5642 38.5635 13.5674 38.5532C13.5736 38.5332 13.5808 38.5135 13.5879 38.4937C13.5952 38.4733 13.6032 38.4532 13.6113 38.4331C13.6144 38.4257 13.617 38.418 13.6201 38.4106C13.6252 38.3989 13.6304 38.3872 13.6357 38.3755C13.6454 38.3543 13.6563 38.3337 13.667 38.313C13.6754 38.2967 13.6834 38.2801 13.6924 38.2642C13.694 38.2613 13.6956 38.2582 13.6973 38.2554C13.7003 38.25 13.7039 38.245 13.707 38.2397C13.7183 38.2206 13.7301 38.2018 13.7422 38.1831C13.7533 38.166 13.7646 38.149 13.7764 38.1323C13.793 38.1088 13.8101 38.0856 13.8281 38.063C13.8329 38.057 13.8379 38.0513 13.8428 38.0454L13.874 38.0083C13.8783 38.0034 13.8824 37.9984 13.8867 37.9937C13.8984 37.9807 13.9106 37.9681 13.9229 37.9556L13.9766 37.9019C13.9835 37.8954 13.991 37.8896 13.998 37.8833C14.0078 37.8745 14.0183 37.8665 14.0283 37.8579C14.0389 37.8489 14.0488 37.8392 14.0596 37.8306C14.0772 37.8164 14.0951 37.8028 14.1133 37.7896C14.1231 37.7824 14.1335 37.776 14.1436 37.769C14.1495 37.7649 14.1551 37.7604 14.1611 37.7563L14.1855 37.7407C14.1995 37.7317 14.2134 37.7228 14.2275 37.7144L14.2549 37.6978L56.2559 13.6978Z" fill="#E0E2F2"/>
<circle cx="59.5" cy="13.5" r="13.5" fill="#38C2E0"/>
<circle cx="58.5" cy="112.5" r="13.5" fill="#E0E2F2"/>
<circle cx="13.5" cy="36.5" r="13.5" fill="#83E6F2"/>
<circle cx="13.5" cy="86.5" r="13.5" fill="#225CD9"/>
<path d="M159.207 76V49.8182H163.23V76H159.207ZM161.252 45.4545C160.468 45.4545 159.792 45.1875 159.224 44.6534C158.667 44.1193 158.389 43.4773 158.389 42.7273C158.389 41.9773 158.667 41.3352 159.224 40.8011C159.792 40.267 160.468 40 161.252 40C162.036 40 162.707 40.267 163.264 40.8011C163.832 41.3352 164.116 41.9773 164.116 42.7273C164.116 43.4773 163.832 44.1193 163.264 44.6534C162.707 45.1875 162.036 45.4545 161.252 45.4545Z" fill="#091C26"/>
<path d="M141.784 76.6137C140.125 76.6137 138.62 76.3012 137.267 75.6762C135.915 75.0398 134.841 74.125 134.046 72.9318C133.25 71.7273 132.853 70.2727 132.853 68.5682C132.853 67.0682 133.148 65.8523 133.739 64.9205C134.33 63.9773 135.12 63.2387 136.108 62.7046C137.097 62.1705 138.188 61.7727 139.381 61.5114C140.586 61.2387 141.796 61.0227 143.012 60.8637C144.603 60.6591 145.892 60.5057 146.881 60.4034C147.881 60.2898 148.608 60.1023 149.063 59.8409C149.529 59.5796 149.762 59.125 149.762 58.4773V58.3409C149.762 56.6591 149.302 55.3523 148.381 54.4205C147.472 53.4887 146.091 53.0228 144.239 53.0228C142.319 53.0228 140.813 53.4432 139.722 54.2841C138.631 55.125 137.864 56.0227 137.421 56.9773L133.603 55.6137C134.284 54.0227 135.194 52.7841 136.33 51.8978C137.478 51 138.728 50.375 140.08 50.0228C141.444 49.6591 142.784 49.4773 144.103 49.4773C144.944 49.4773 145.909 49.5796 147 49.7841C148.103 49.9773 149.165 50.3807 150.188 50.9943C151.222 51.608 152.08 52.5341 152.762 53.7728C153.444 55.0114 153.784 56.6705 153.784 58.75V76H149.762V72.4546H149.557C149.284 73.0227 148.83 73.6307 148.194 74.2784C147.557 74.9262 146.711 75.4773 145.654 75.9318C144.597 76.3864 143.307 76.6137 141.784 76.6137ZM142.398 73C143.989 73 145.33 72.6875 146.421 72.0625C147.523 71.4375 148.353 70.6307 148.909 69.6421C149.478 68.6534 149.762 67.6137 149.762 66.5228V62.8409C149.591 63.0455 149.216 63.233 148.637 63.4034C148.069 63.5625 147.409 63.7046 146.659 63.8296C145.921 63.9432 145.199 64.0455 144.495 64.1364C143.802 64.2159 143.239 64.2841 142.807 64.3409C141.762 64.4773 140.784 64.6989 139.875 65.0057C138.978 65.3012 138.25 65.75 137.694 66.3523C137.148 66.9432 136.875 67.75 136.875 68.7728C136.875 70.1705 137.392 71.2273 138.427 71.9432C139.472 72.6477 140.796 73 142.398 73Z" fill="#091C26"/>
<path d="M125.713 76.2727C124.872 76.2727 124.151 75.9716 123.548 75.3693C122.946 74.767 122.645 74.0454 122.645 73.2045C122.645 72.3636 122.946 71.642 123.548 71.0398C124.151 70.4375 124.872 70.1364 125.713 70.1364C126.554 70.1364 127.276 70.4375 127.878 71.0398C128.48 71.642 128.781 72.3636 128.781 73.2045C128.781 73.7614 128.639 74.2727 128.355 74.7386C128.082 75.2045 127.713 75.5795 127.247 75.8636C126.793 76.1364 126.281 76.2727 125.713 76.2727Z" fill="#091C26"/>
</g>
<defs>
<clipPath id="clip0_29_19">
<rect width="164" height="126" fill="white"/>
</clipPath>
</defs>
</svg>
