<svg width="106" height="81" viewBox="0 0 106 81" fill="none" xmlns="http://www.w3.org/2000/svg">
<g clip-path="url(#clip0_7_112)">
<path d="M102.347 48.8571V32.026H104.933V48.8571H102.347ZM103.662 29.2208C103.158 29.2208 102.723 29.0491 102.358 28.7058C102 28.3624 101.821 27.9497 101.821 27.4675C101.821 26.9854 102 26.5726 102.358 26.2293C102.723 25.886 103.158 25.7143 103.662 25.7143C104.166 25.7143 104.597 25.886 104.955 26.2293C105.32 26.5726 105.503 26.9854 105.503 27.4675C105.503 27.9497 105.32 28.3624 104.955 28.7058C104.597 29.0491 104.166 29.2208 103.662 29.2208Z" fill="#E23D18"/>
<path d="M91.1472 49.2516C90.0806 49.2516 89.1127 49.0507 88.2433 48.6489C87.374 48.2398 86.6837 47.6518 86.1723 46.8847C85.661 46.1104 85.4053 45.1753 85.4053 44.0795C85.4053 43.1152 85.5952 42.3336 85.9751 41.7346C86.355 41.1282 86.8627 40.6534 87.4982 40.3101C88.1338 39.9667 88.8351 39.711 89.6021 39.543C90.3765 39.3677 91.1545 39.2289 91.9361 39.1266C92.9588 38.9951 93.788 38.8965 94.4235 38.8308C95.0664 38.7577 95.5339 38.6372 95.8261 38.4691C96.1256 38.3011 96.2754 38.0089 96.2754 37.5925V37.5049C96.2754 36.4237 95.9795 35.5836 95.3878 34.9846C94.8034 34.3855 93.9158 34.086 92.7251 34.086C91.4905 34.086 90.5226 34.3563 89.8213 34.8969C89.12 35.4375 88.6269 36.0146 88.342 36.6282L85.8874 35.7516C86.3257 34.7289 86.9101 33.9326 87.6407 33.3628C88.3785 32.7857 89.1821 32.3839 90.0514 32.1575C90.928 31.9237 91.79 31.8068 92.6374 31.8068C93.178 31.8068 93.7989 31.8726 94.5002 32.004C95.2088 32.1282 95.8919 32.3876 96.5493 32.7821C97.2141 33.1765 97.7657 33.7719 98.204 34.5682C98.6423 35.3644 98.8614 36.431 98.8614 37.7678V48.8571H96.2754V46.5779H96.1439C95.9686 46.9432 95.6764 47.334 95.2673 47.7504C94.8582 48.1668 94.314 48.5211 93.6346 48.8133C92.9552 49.1055 92.1261 49.2516 91.1472 49.2516ZM91.5416 46.9286C92.5644 46.9286 93.4264 46.7277 94.1277 46.3259C94.8363 45.9241 95.3696 45.4054 95.7275 44.7699C96.0928 44.1343 96.2754 43.4659 96.2754 42.7646V40.3977C96.1658 40.5292 95.9248 40.6497 95.5522 40.7593C95.1869 40.8616 94.7632 40.9529 94.2811 41.0333C93.8062 41.1063 93.3424 41.1721 92.8894 41.2305C92.4438 41.2816 92.0822 41.3255 91.8046 41.362C91.1325 41.4497 90.5043 41.5921 89.9199 41.7894C89.3428 41.9793 88.8752 42.2678 88.5173 42.655C88.1666 43.0349 87.9913 43.5536 87.9913 44.211C87.9913 45.1096 88.3237 45.789 88.9885 46.2492C89.6606 46.7021 90.5116 46.9286 91.5416 46.9286Z" fill="#E23D18"/>
<path d="M80.8155 49.0325C80.2749 49.0325 79.811 48.8389 79.4239 48.4517C79.0367 48.0645 78.8431 47.6006 78.8431 47.0601C78.8431 46.5195 79.0367 46.0556 79.4239 45.6684C79.811 45.2812 80.2749 45.0877 80.8155 45.0877C81.3561 45.0877 81.82 45.2812 82.2072 45.6684C82.5943 46.0556 82.7879 46.5195 82.7879 47.0601C82.7879 47.418 82.6966 47.7468 82.514 48.0463C82.3386 48.3458 82.1012 48.5868 81.8017 48.7695C81.5095 48.9448 81.1808 49.0325 80.8155 49.0325Z" fill="#E23D18"/>
<path d="M69.262 49.2078C67.6403 49.2078 66.2413 48.8498 65.0652 48.1339C63.8964 47.4107 62.9942 46.4026 62.3586 45.1096C61.7304 43.8092 61.4163 42.2971 61.4163 40.573C61.4163 38.849 61.7304 37.3295 62.3586 36.0146C62.9942 34.6924 63.8781 33.6623 65.0104 32.9245C66.15 32.1794 67.4796 31.8068 68.9991 31.8068C69.8757 31.8068 70.7413 31.9529 71.5961 32.2451C72.4508 32.5373 73.2288 33.0122 73.9301 33.6696C74.6314 34.3198 75.1902 35.1818 75.6066 36.2557C76.023 37.3295 76.2312 38.6518 76.2312 40.2224V41.3182H63.2572V39.0828H73.6013C73.6013 38.1331 73.4114 37.2857 73.0315 36.5406C72.659 35.7954 72.1257 35.2074 71.4317 34.7764C70.745 34.3454 69.9341 34.1299 68.9991 34.1299C67.969 34.1299 67.0778 34.3855 66.3254 34.8969C65.5802 35.401 65.0068 36.0584 64.605 36.8693C64.2032 37.6802 64.0023 38.5495 64.0023 39.4773V40.9675C64.0023 42.2386 64.2215 43.3161 64.6598 44.2001C65.1054 45.0767 65.7227 45.7451 66.5116 46.2053C67.3006 46.6583 68.2174 46.8847 69.262 46.8847C69.9414 46.8847 70.5551 46.7898 71.103 46.5998C71.6581 46.4026 72.1366 46.1104 72.5384 45.7232C72.9402 45.3287 73.2507 44.8393 73.4698 44.2549L75.9682 44.9562C75.7052 45.8036 75.2633 46.5487 74.6423 47.1916C74.0214 47.8271 73.2543 48.3239 72.3412 48.6818C71.428 49.0325 70.4017 49.2078 69.262 49.2078Z" fill="#091C26"/>
<path d="M60.6289 32.026L54.4048 48.8571H51.775L45.5509 32.026H48.3561L53.0022 45.4383H53.1776L57.8237 32.026H60.6289Z" fill="#091C26"/>
<path d="M37.7094 49.2078C36.0877 49.2078 34.6887 48.8498 33.5126 48.1339C32.3438 47.4107 31.4416 46.4026 30.806 45.1096C30.1778 43.8092 29.8636 42.2971 29.8636 40.573C29.8636 38.849 30.1778 37.3295 30.806 36.0146C31.4416 34.6924 32.3255 33.6623 33.4578 32.9245C34.5974 32.1794 35.927 31.8068 37.4464 31.8068C38.3231 31.8068 39.1887 31.9529 40.0434 32.2451C40.8981 32.5373 41.6761 33.0122 42.3774 33.6696C43.0787 34.3198 43.6376 35.1818 44.054 36.2557C44.4704 37.3295 44.6786 38.6518 44.6786 40.2224V41.3182H31.7046V39.0828H42.0487C42.0487 38.1331 41.8588 37.2857 41.4789 36.5406C41.1063 35.7954 40.5731 35.2074 39.8791 34.7764C39.1924 34.3454 38.3815 34.1299 37.4464 34.1299C36.4164 34.1299 35.5252 34.3855 34.7727 34.8969C34.0276 35.401 33.4542 36.0584 33.0524 36.8693C32.6506 37.6802 32.4497 38.5495 32.4497 39.4773V40.9675C32.4497 42.2386 32.6688 43.3161 33.1072 44.2001C33.5528 45.0767 34.1701 45.7451 34.959 46.2053C35.748 46.6583 36.6648 46.8847 37.7094 46.8847C38.3888 46.8847 39.0024 46.7898 39.5503 46.5998C40.1055 46.4026 40.584 46.1104 40.9858 45.7232C41.3876 45.3287 41.6981 44.8393 41.9172 44.2549L44.4156 44.9562C44.1526 45.8036 43.7106 46.5487 43.0897 47.1916C42.4688 47.8271 41.7017 48.3239 40.7886 48.6818C39.8754 49.0325 38.849 49.2078 37.7094 49.2078Z" fill="#091C26"/>
<path opacity="0.25" d="M36.1649 8.80515C36.6272 8.54135 37.2162 8.70231 37.4803 9.16452C37.7443 9.62688 37.5833 10.2158 37.1209 10.48L11.5858 25.0708L28.7928 34.9028C28.4201 35.4246 28.0979 35.9846 27.8338 36.5766L10.6073 26.7329V54.2661L27.8338 44.4214C28.0978 45.0135 28.4201 45.5733 28.7928 46.0952L11.5858 55.9282L37.1209 70.52C37.5833 70.7842 37.7444 71.3731 37.4803 71.8354C37.2161 72.2978 36.6273 72.4579 36.1649 72.1938L9.18735 56.7778C9.18015 56.7739 9.17295 56.7701 9.16586 56.7661L9.16391 56.7651C9.16085 56.7634 9.15815 56.761 9.15512 56.7593C9.14241 56.7518 9.12943 56.7448 9.11703 56.7368C9.10802 56.7309 9.09947 56.7244 9.09067 56.7182C9.08279 56.7127 9.0749 56.7073 9.06723 56.7016C9.05903 56.6955 9.05084 56.6894 9.04282 56.6831C9.0345 56.6765 9.0265 56.6695 9.0184 56.6626C9.01046 56.6558 9.00265 56.649 8.99496 56.6421C8.98781 56.6356 8.98046 56.6293 8.97348 56.6225C8.96553 56.6149 8.95773 56.607 8.95004 56.5991C8.94168 56.5905 8.93362 56.5816 8.92563 56.5727C8.91932 56.5657 8.9132 56.5585 8.90707 56.5512C8.89899 56.5417 8.89135 56.5318 8.88364 56.5219C8.87906 56.5161 8.8744 56.5103 8.86996 56.5044C8.85854 56.489 8.84835 56.4727 8.83774 56.4565C8.83025 56.4451 8.82225 56.434 8.81528 56.4223C8.81217 56.4171 8.80853 56.412 8.80551 56.4067C8.80421 56.4044 8.80289 56.4022 8.80161 56.3999C8.79534 56.3887 8.78986 56.3771 8.78403 56.3657C8.77993 56.3576 8.77617 56.3494 8.77231 56.3413C8.76368 56.3231 8.7553 56.305 8.74789 56.2866C8.74349 56.2756 8.73919 56.2645 8.7352 56.2534C8.73192 56.2443 8.72842 56.2352 8.72543 56.226C8.71847 56.2046 8.71235 56.1827 8.70688 56.1606C8.70429 56.1502 8.7013 56.1399 8.69907 56.1294C8.69715 56.1203 8.69584 56.1112 8.69418 56.102C8.69353 56.0984 8.69285 56.0949 8.69223 56.0913L8.68539 56.0434C8.68508 56.0408 8.68471 56.0382 8.68442 56.0356C8.68374 56.0294 8.68303 56.0233 8.68246 56.0171C8.68107 56.0021 8.68023 55.9871 8.67953 55.9721C8.67922 55.965 8.67871 55.9578 8.67856 55.9507V25.0551C8.67902 25.0297 8.68 25.0042 8.68246 24.979C8.68331 24.9701 8.68529 24.9614 8.68637 24.9526C8.68895 24.932 8.69127 24.9114 8.69516 24.8911C8.69639 24.8846 8.6977 24.878 8.69907 24.8716C8.70199 24.8578 8.70626 24.8443 8.70981 24.8305C8.71715 24.802 8.72538 24.774 8.7352 24.7466C8.73718 24.741 8.73898 24.7354 8.74106 24.73L8.75473 24.6958C8.75525 24.6946 8.75519 24.6931 8.75571 24.6919C8.75983 24.6823 8.76492 24.6731 8.76938 24.6635C8.77227 24.6573 8.77514 24.6511 8.77817 24.645L8.79477 24.6118C8.79909 24.6038 8.80391 24.5962 8.80844 24.5884C8.81779 24.5722 8.82743 24.5562 8.83774 24.5405C8.84887 24.5236 8.85989 24.5067 8.87192 24.4907C8.87567 24.4857 8.87978 24.481 8.88364 24.476C8.89605 24.4602 8.90934 24.4451 8.9227 24.4301C8.9305 24.4214 8.93798 24.4123 8.94614 24.4038C8.95569 24.3938 8.96547 24.384 8.97543 24.3745L9.00473 24.3481C9.00923 24.3442 9.01382 24.3403 9.0184 24.3364C9.02421 24.3315 9.03005 24.3266 9.03598 24.3218C9.04882 24.3114 9.06174 24.3011 9.07504 24.2915C9.08073 24.2873 9.08682 24.2838 9.09262 24.2798C9.1055 24.2708 9.11835 24.2617 9.13168 24.2534C9.14229 24.2468 9.15296 24.2401 9.16391 24.2339L36.1649 8.80515Z" fill="#091C26"/>
<circle cx="38.25" cy="8.67857" r="8.67857" fill="#FBDF74"/>
<circle cx="37.6071" cy="72.3214" r="8.67857" fill="#99C88B"/>
<circle cx="8.67857" cy="23.4643" r="8.67857" fill="#091C26"/>
<circle cx="8.67857" cy="55.6071" r="8.67857" fill="#E23D18"/>
</g>
<defs>
<clipPath id="clip0_7_112">
<rect width="106" height="81" fill="white"/>
</clipPath>
</defs>
</svg>
