<svg width="272" height="192" viewBox="0 0 272 192" fill="none" xmlns="http://www.w3.org/2000/svg">
<rect width="272" height="192" fill="#091C26"/>
<path d="M207.207 109V82.8182H211.23V109H207.207ZM209.252 78.4545C208.468 78.4545 207.792 78.1875 207.224 77.6534C206.667 77.1193 206.389 76.4773 206.389 75.7273C206.389 74.9773 206.667 74.3352 207.224 73.8011C207.792 73.267 208.468 73 209.252 73C210.036 73 210.707 73.267 211.264 73.8011C211.832 74.3352 212.116 74.9773 212.116 75.7273C212.116 76.4773 211.832 77.1193 211.264 77.6534C210.707 78.1875 210.036 78.4545 209.252 78.4545Z" fill="#F9512B"/>
<path d="M189.784 109.614C188.125 109.614 186.62 109.301 185.267 108.676C183.915 108.04 182.841 107.125 182.046 105.932C181.25 104.727 180.853 103.273 180.853 101.568C180.853 100.068 181.148 98.8523 181.739 97.9205C182.33 96.9773 183.12 96.2386 184.108 95.7045C185.097 95.1705 186.188 94.7727 187.381 94.5114C188.586 94.2386 189.796 94.0227 191.012 93.8636C192.603 93.6591 193.892 93.5057 194.881 93.4034C195.881 93.2898 196.608 93.1023 197.063 92.8409C197.529 92.5795 197.762 92.125 197.762 91.4773V91.3409C197.762 89.6591 197.302 88.3523 196.381 87.4205C195.472 86.4886 194.091 86.0227 192.239 86.0227C190.319 86.0227 188.813 86.4432 187.722 87.2841C186.631 88.125 185.864 89.0227 185.421 89.9773L181.603 88.6136C182.284 87.0227 183.194 85.7841 184.33 84.8977C185.478 84 186.728 83.375 188.08 83.0227C189.444 82.6591 190.784 82.4773 192.103 82.4773C192.944 82.4773 193.909 82.5795 195 82.7841C196.103 82.9773 197.165 83.3807 198.188 83.9943C199.222 84.608 200.08 85.5341 200.762 86.7727C201.444 88.0114 201.784 89.6705 201.784 91.75V109H197.762V105.455H197.557C197.284 106.023 196.83 106.631 196.194 107.278C195.557 107.926 194.711 108.477 193.654 108.932C192.597 109.386 191.307 109.614 189.784 109.614ZM190.398 106C191.989 106 193.33 105.688 194.421 105.062C195.523 104.438 196.353 103.631 196.909 102.642C197.478 101.653 197.762 100.614 197.762 99.5227V95.8409C197.591 96.0455 197.216 96.233 196.637 96.4034C196.069 96.5625 195.409 96.7045 194.659 96.8295C193.921 96.9432 193.199 97.0455 192.495 97.1364C191.802 97.2159 191.239 97.2841 190.807 97.3409C189.762 97.4773 188.784 97.6989 187.875 98.0057C186.978 98.3011 186.25 98.75 185.694 99.3523C185.148 99.9432 184.875 100.75 184.875 101.773C184.875 103.17 185.392 104.227 186.427 104.943C187.472 105.648 188.796 106 190.398 106Z" fill="#F9512B"/>
<path d="M173.713 109.273C172.872 109.273 172.151 108.972 171.548 108.369C170.946 107.767 170.645 107.045 170.645 106.205C170.645 105.364 170.946 104.642 171.548 104.04C172.151 103.438 172.872 103.136 173.713 103.136C174.554 103.136 175.276 103.438 175.878 104.04C176.48 104.642 176.781 105.364 176.781 106.205C176.781 106.761 176.639 107.273 176.355 107.739C176.082 108.205 175.713 108.58 175.247 108.864C174.793 109.136 174.281 109.273 173.713 109.273Z" fill="#F9512B"/>
<path d="M155.741 109.545C153.218 109.545 151.042 108.989 149.213 107.875C147.394 106.75 145.991 105.182 145.002 103.17C144.025 101.148 143.536 98.7955 143.536 96.1136C143.536 93.4318 144.025 91.0682 145.002 89.0227C145.991 86.9659 147.366 85.3636 149.127 84.2159C150.9 83.0568 152.968 82.4773 155.332 82.4773C156.696 82.4773 158.042 82.7045 159.372 83.1591C160.701 83.6136 161.911 84.3523 163.002 85.375C164.093 86.3864 164.963 87.7273 165.61 89.3977C166.258 91.0682 166.582 93.125 166.582 95.5682V97.2727H146.4V93.7955H162.491C162.491 92.3182 162.196 91 161.605 89.8409C161.025 88.6818 160.195 87.767 159.116 87.0966C158.048 86.4261 156.786 86.0909 155.332 86.0909C153.73 86.0909 152.343 86.4886 151.173 87.2841C150.014 88.0682 149.122 89.0909 148.497 90.3523C147.872 91.6136 147.559 92.9659 147.559 94.4091V96.7273C147.559 98.7045 147.9 100.381 148.582 101.756C149.275 103.119 150.235 104.159 151.463 104.875C152.69 105.58 154.116 105.932 155.741 105.932C156.798 105.932 157.752 105.784 158.605 105.489C159.468 105.182 160.213 104.727 160.838 104.125C161.463 103.511 161.946 102.75 162.286 101.841L166.173 102.932C165.764 104.25 165.076 105.409 164.11 106.409C163.144 107.398 161.951 108.17 160.531 108.727C159.11 109.273 157.514 109.545 155.741 109.545Z" fill="white"/>
<path d="M142.312 82.8182L132.63 109H128.539L118.857 82.8182H123.221L130.448 103.682H130.721L137.948 82.8182H142.312Z" fill="white"/>
<path d="M106.659 109.545C104.136 109.545 101.96 108.989 100.131 107.875C98.3125 106.75 96.9091 105.182 95.9205 103.17C94.9432 101.148 94.4546 98.7955 94.4546 96.1136C94.4546 93.4318 94.9432 91.0682 95.9205 89.0227C96.9091 86.9659 98.2841 85.3636 100.045 84.2159C101.818 83.0568 103.886 82.4773 106.25 82.4773C107.614 82.4773 108.96 82.7045 110.29 83.1591C111.619 83.6136 112.83 84.3523 113.92 85.375C115.011 86.3864 115.881 87.7273 116.528 89.3977C117.176 91.0682 117.5 93.125 117.5 95.5682V97.2727H97.3182V93.7955H113.409C113.409 92.3182 113.114 91 112.523 89.8409C111.943 88.6818 111.114 87.767 110.034 87.0966C108.966 86.4261 107.705 86.0909 106.25 86.0909C104.648 86.0909 103.261 86.4886 102.091 87.2841C100.932 88.0682 100.04 89.0909 99.4148 90.3523C98.7898 91.6136 98.4773 92.9659 98.4773 94.4091V96.7273C98.4773 98.7045 98.8182 100.381 99.5 101.756C100.193 103.119 101.153 104.159 102.381 104.875C103.608 105.58 105.034 105.932 106.659 105.932C107.716 105.932 108.67 105.784 109.523 105.489C110.386 105.182 111.131 104.727 111.756 104.125C112.381 103.511 112.864 102.75 113.205 101.841L117.091 102.932C116.682 104.25 115.994 105.409 115.028 106.409C114.063 107.398 112.869 108.17 111.449 108.727C110.028 109.273 108.432 109.545 106.659 109.545Z" fill="white"/>
<path opacity="0.52" d="M104.256 46.6978C104.975 46.2868 105.892 46.5362 106.303 47.2554C106.714 47.9747 106.463 48.8913 105.744 49.3023L66.0225 71.9996L92.7852 87.2925C92.2059 88.1037 91.7055 88.9749 91.2949 89.8951L64.5 74.5845V117.415L91.2939 102.103C91.7045 103.024 92.2048 103.895 92.7842 104.707L66.0225 120L105.744 142.698C106.463 143.109 106.714 144.025 106.303 144.745C105.892 145.464 104.975 145.713 104.256 145.302L62.2549 121.302C62.2477 121.298 62.2414 121.293 62.2344 121.289C62.2159 121.278 62.1977 121.266 62.1797 121.254C62.1677 121.247 62.1553 121.239 62.1436 121.231C62.134 121.224 62.1246 121.217 62.1152 121.211C62.0954 121.196 62.0758 121.181 62.0566 121.166C62.0471 121.158 62.0377 121.15 62.0283 121.142C62.026 121.14 62.0238 121.138 62.0215 121.136C62.0146 121.13 62.0077 121.125 62.001 121.119C61.9837 121.103 61.9669 121.087 61.9502 121.071C61.9425 121.063 61.9353 121.055 61.9277 121.047C61.9138 121.033 61.9 121.019 61.8867 121.004C61.8744 120.991 61.8625 120.977 61.8506 120.962C61.8452 120.956 61.8402 120.949 61.835 120.943C61.82 120.925 61.805 120.906 61.791 120.887C61.783 120.876 61.7753 120.865 61.7676 120.854C61.7591 120.842 61.7513 120.829 61.7432 120.817C61.7318 120.8 61.7205 120.782 61.71 120.764C61.706 120.758 61.7011 120.751 61.6973 120.745C61.6949 120.741 61.6927 120.736 61.6904 120.732C61.6818 120.717 61.6741 120.701 61.666 120.685C61.6572 120.668 61.6487 120.651 61.6406 120.633C61.6339 120.619 61.6273 120.605 61.6211 120.59C61.6164 120.58 61.6128 120.568 61.6084 120.557C61.6022 120.542 61.5956 120.526 61.5898 120.51C61.5609 120.431 61.5392 120.35 61.5244 120.268C61.5235 120.263 61.5223 120.258 61.5215 120.253L61.5098 120.179C61.5079 120.164 61.5072 120.149 61.5059 120.133C61.5042 120.115 61.5039 120.097 61.5029 120.079C61.5022 120.064 61.5003 120.049 61.5 120.034V71.9664C61.5003 71.9511 61.5021 71.9358 61.5029 71.9205C61.5039 71.9019 61.5042 71.8833 61.5059 71.8648C61.5064 71.8586 61.5072 71.8524 61.5078 71.8463V71.8424C61.5103 71.8189 61.514 71.7955 61.5176 71.772L61.5215 71.7466C61.5227 71.7398 61.5241 71.733 61.5254 71.7261C61.5274 71.7154 61.5281 71.7045 61.5303 71.6939C61.5355 71.6687 61.5422 71.6438 61.5488 71.6187C61.5518 71.6073 61.5553 71.5959 61.5586 71.5845C61.5616 71.5741 61.5642 71.5636 61.5674 71.5533C61.5736 71.5333 61.5808 71.5135 61.5879 71.4937C61.5952 71.4733 61.6032 71.4532 61.6113 71.4332C61.6144 71.4257 61.617 71.4181 61.6201 71.4107C61.6252 71.3989 61.6304 71.3872 61.6357 71.3756C61.6454 71.3544 61.6563 71.3338 61.667 71.3131C61.6754 71.2967 61.6834 71.2802 61.6924 71.2642C61.694 71.2613 61.6956 71.2583 61.6973 71.2554C61.7003 71.2501 61.7039 71.2451 61.707 71.2398C61.7183 71.2207 61.7301 71.2018 61.7422 71.1832C61.7533 71.1661 61.7646 71.149 61.7764 71.1324C61.793 71.1089 61.8101 71.0856 61.8281 71.0631C61.8329 71.0571 61.8379 71.0514 61.8428 71.0455L61.874 71.0084C61.8783 71.0035 61.8824 70.9985 61.8867 70.9937C61.8984 70.9808 61.9106 70.9682 61.9229 70.9556L61.9766 70.9019C61.9835 70.8955 61.991 70.8897 61.998 70.8834C62.0078 70.8746 62.0183 70.8665 62.0283 70.858C62.0389 70.849 62.0488 70.8393 62.0596 70.8306C62.0772 70.8165 62.0951 70.8029 62.1133 70.7896C62.1231 70.7824 62.1335 70.7761 62.1436 70.7691C62.1495 70.765 62.1551 70.7605 62.1611 70.7564L62.1855 70.7408C62.1995 70.7318 62.2134 70.7229 62.2275 70.7144L62.2549 70.6978L104.256 46.6978Z" fill="#BEC5C0"/>
<circle cx="107.5" cy="46.5" r="13.5" fill="#FBDF74"/>
<circle cx="106.5" cy="145.5" r="13.5" fill="#3C9A47"/>
<circle cx="61.5" cy="69.5" r="13.5" fill="white"/>
<circle cx="61.5" cy="119.5" r="13.5" fill="#F9512B"/>
</svg>
